<svg width="24" height="23" viewBox="0 0 24 23" fill="none" xmlns="http://www.w3.org/2000/svg">
<path d="M14 2.64038C16 2.64038 17 3.55229 17 5.37612V11.7415C17 13.5382 15.59 14.2334 13.86 13.2944L12.54 12.5721C12.24 12.4096 11.76 12.4096 11.46 12.5721L10.14 13.2944C8.41 14.2334 7 13.5382 7 11.7415V5.37612C7 3.55229 8 2.64038 10 2.64038H14Z" stroke="white" stroke-width="1.5" stroke-linecap="round" stroke-linejoin="round"/>
<path d="M6.82 5.33995C3.41 5.8546 2 7.75066 2 11.5789V14.3146C2 18.8742 4 20.698 9 20.698H15C20 20.698 22 18.8742 22 14.3146V11.5789C22 7.68745 20.54 5.78237 17 5.31287" stroke="white" stroke-width="1.5" stroke-linecap="round" stroke-linejoin="round"/>
</svg>
