<svg width="24" height="24" viewBox="0 0 24 24" fill="none" xmlns="http://www.w3.org/2000/svg">
<path d="M23 17.91C23.02 18.66 22.82 19.37 22.46 19.98C22.26 20.34 21.99 20.67 21.69 20.94C21 21.58 20.09 21.97 19.08 22C17.62 22.03 16.33 21.28 15.62 20.13C15.24 19.54 15.01 18.83 15 18.08C14.97 16.82 15.53 15.68 16.43 14.93C17.11 14.37 17.97 14.02 18.91 14C19.4353 13.988 19.9578 14.0797 20.4477 14.2698C20.9376 14.4598 21.3852 14.7445 21.7651 15.1076C22.1449 15.4707 22.4494 15.9051 22.6613 16.386C22.8732 16.8668 22.9883 17.3847 23 17.91Z" stroke="black" stroke-width="1.5" stroke-miterlimit="10" stroke-linecap="round" stroke-linejoin="round"/>
<path d="M17.44 18.03L18.45 18.99L20.54 16.97M3.16998 7.44L12 12.55L20.77 7.47M12 21.61V12.54" stroke="black" stroke-width="1.5" stroke-linecap="round" stroke-linejoin="round"/>
<path d="M21.61 9.17V14.83C21.61 14.88 21.61 14.92 21.6 14.97C20.9 14.36 20 14 19 14C18.06 14 17.19 14.33 16.5 14.88C16.0306 15.253 15.6518 15.7275 15.392 16.2679C15.1322 16.8083 14.9982 17.4004 15 18C15 18.75 15.21 19.46 15.58 20.06C15.67 20.22 15.78 20.37 15.9 20.51L14.07 21.52C12.93 22.16 11.07 22.16 9.93001 21.52L4.59001 18.56C3.38001 17.89 2.39001 16.21 2.39001 14.83V9.17C2.39001 7.79 3.38001 6.11 4.59001 5.44L9.93001 2.48C11.07 1.84 12.93 1.84 14.07 2.48L19.41 5.44C20.62 6.11 21.61 7.79 21.61 9.17Z" stroke="black" stroke-width="1.5" stroke-linecap="round" stroke-linejoin="round"/>
</svg>
