<svg width="37" height="37" viewBox="0 0 37 37" fill="none" xmlns="http://www.w3.org/2000/svg">
<rect x="12" y="7" width="14" height="27" rx="2" fill="white"/>
<path d="M33.9167 25.0507C33.9167 30.6624 30.4881 34.091 24.8764 34.091H23.0418C22.1939 34.091 21.5833 33.314 21.5833 32.4661V23.5707C21.5833 23.1545 21.9225 22.7999 22.3388 22.7999L25.0521 22.7536C25.2679 22.7382 25.4529 22.584 25.4992 22.3682L26.0388 19.4236C26.0492 19.3569 26.0451 19.2887 26.0267 19.2237C26.0082 19.1587 25.9759 19.0985 25.932 19.0472C25.888 18.9959 25.8334 18.9547 25.772 18.9266C25.7106 18.8984 25.6438 18.8839 25.5763 18.884L22.2925 18.9303C21.8608 18.9303 21.5217 18.5911 21.5063 18.1749L21.4446 14.3978C21.4446 14.1511 21.645 13.9353 21.9071 13.9353L25.6071 13.8736C25.8692 13.8736 26.0696 13.6732 26.0696 13.4111L26.0079 9.71112C26.0079 9.44904 25.8075 9.24863 25.5454 9.24863L21.3829 9.31029C20.7753 9.31952 20.1755 9.44857 19.6178 9.69004C19.0601 9.93151 18.5556 10.2807 18.1331 10.7175C17.7106 11.1543 17.3785 11.6702 17.1557 12.2356C16.933 12.801 16.824 13.4048 16.835 14.0124L16.9121 18.252C16.9275 18.6836 16.5883 19.0228 16.1567 19.0382L14.3067 19.069C14.0446 19.069 13.8442 19.2695 13.8442 19.5315L13.8904 22.4607C13.8904 22.7228 14.0908 22.9232 14.3529 22.9232L16.2029 22.8924C16.6346 22.8924 16.9738 23.2315 16.9892 23.6478L17.1279 32.4353C17.1433 33.2986 16.4496 34.0078 15.5863 34.0078H12.0404C6.42876 34.0078 3.08334 30.6624 3.08334 25.0353V12.1315C3.08334 6.51988 6.42876 3.17446 12.0404 3.17446H24.9596C30.5713 3.17446 33.9167 6.51988 33.9167 12.1315V25.0507Z" fill="#008AEE"/>
</svg>
