<svg width="24" height="24" viewBox="0 0 24 24" fill="none" xmlns="http://www.w3.org/2000/svg">
<path d="M3.01 11.22V15.71C3.01 20.2 4.81 22 9.3 22H14.69C19.18 22 20.98 20.2 20.98 15.71V11.22" stroke="white" stroke-width="2" stroke-linecap="round" stroke-linejoin="round"/>
<path d="M12 12C13.83 12 15.18 10.51 15 8.68L14.34 2H9.67L9 8.68C8.82 10.51 10.17 12 12 12Z" stroke="white" stroke-width="2" stroke-linecap="round" stroke-linejoin="round"/>
<path d="M17.9877 12C20.0077 12 21.4877 10.36 21.2877 8.35L21.0077 5.6C20.6477 3 19.6477 2 17.0277 2H13.9777L14.6777 9.01C14.8477 10.66 16.3377 12 17.9877 12ZM5.31774 12C6.96774 12 8.45773 10.66 8.61773 9.01L8.83774 6.8L9.31774 2H6.26774C3.64774 2 2.64774 3 2.28774 5.6L2.01774 8.35C1.81774 10.36 3.29774 12 5.31774 12ZM11.6777 17C10.0077 17 9.17774 17.83 9.17774 19.5V22H14.1777V19.5C14.1777 17.83 13.3477 17 11.6777 17Z" stroke="white" stroke-width="2" stroke-linecap="round" stroke-linejoin="round"/>
</svg>
