<svg width="28" height="28" viewBox="0 0 28 28" fill="none" xmlns="http://www.w3.org/2000/svg">
<path d="M20.9642 15.9213C20.4335 16.4394 20.1302 17.1849 20.206 17.981C20.3198 19.3457 21.5708 20.3439 22.9355 20.3439H25.3363V21.8477C25.3363 24.4633 23.2008 26.5989 20.5851 26.5989H6.07878C3.46309 26.5989 1.32758 24.4633 1.32758 21.8477V13.3435C1.32758 10.7278 3.46309 8.59229 6.07878 8.59229H20.5851C23.2008 8.59229 25.3363 10.7278 25.3363 13.3435V15.1631H22.7838C22.0762 15.1631 21.4318 15.4411 20.9642 15.9213Z" stroke="white" stroke-width="2.5" stroke-linecap="round" stroke-linejoin="round"/>
<path d="M1.32758 14.4813V8.70652C1.32758 7.20282 2.25002 5.86338 3.65264 5.33266L13.6858 1.5418C14.0493 1.40481 14.4406 1.35808 14.8262 1.40562C15.2118 1.45316 15.58 1.59355 15.8994 1.81475C16.2188 2.03594 16.4797 2.33133 16.6598 2.67555C16.8398 3.01978 16.9337 3.40256 16.9333 3.79104V8.5928M7.01386 13.9632H15.8592M26.6745 16.4525V19.0556C26.6745 19.7506 26.1185 20.3192 25.4109 20.3445H22.9342C21.5695 20.3445 20.3185 19.3462 20.2048 17.9815C20.129 17.1854 20.4322 16.4399 20.963 15.9218C21.4305 15.4416 22.0749 15.1636 22.7826 15.1636H25.4109C26.1185 15.1889 26.6745 15.7575 26.6745 16.4525Z" stroke="white" stroke-width="2.5" stroke-linecap="round" stroke-linejoin="round"/>
</svg>
